<?xml version="1.0" encoding="utf-8"?>
<svg xmlns="http://www.w3.org/2000/svg" viewBox="20.5 327.8 473.6 129.3">
  <path d="M450.5 373.3l13.6 26-15.7 27.2h12.9l8.9-16 7.9 16h16l-15.9-29.8 13.8-23.4h-12.8l-6.9 12.3-5.7-12.3h-16.1zm-21 9.2c4.6 0 6.2 3.7 6.2 17.3 0 14.2-1.9 17.4-6.2 17.4-4.4 0-6.3-3.3-6.3-17.4 0-13 1.5-17.3 6.3-17.3zm0-10.4c-15.9 0-21.7 11.1-21.7 27.7 0 17.1 6.3 27.8 21.6 27.8 15.6 0 21.8-10.8 21.8-27.8 0-16.6-6-27.7-21.7-27.7m-53.8 20c0-2.7 0-5.5 1.8-7.5 1-1.4 2.7-2.3 4.7-2.3 4.3 0 6.5 3.6 6.5 17.5 0 13.7-2.1 17.4-6.8 17.4-6.2 0-6.2-6.9-6.2-13v-12.1zm-14.6-37.5v71.9h8.8c1.1-3.8 1.7-4.9 2.8-6.9 1.3 2.6 3.8 8 12.2 8 2.9 0 5.8-.6 8.7-2.1 9.7-5.1 10.4-21.1 10.4-26 0-12.9-4.2-27-17.1-27-6.5 0-9.4 3.4-11.2 5.7v-23.7h-14.6v.1zm-32.6 40c0-4.7 0-12.2 6.8-12.2 5.6 0 6 7.4 6 16.9 0 11.2-.5 17.7-6.6 17.7-6.2 0-6.2-4.5-6.2-12.1v-10.3zm-14.6-21.3v71.1h14.6v-21.8c1.7 1.6 4.3 4.5 10.2 4.5 17 0 17.9-20.4 17.9-27.9 0-9-1.6-17.3-6.9-22.6-2.6-2.6-6.4-4.1-10-4.1-7.3 0-10.2 5.3-12 8.7v-8l-13.8.1zm-26 9.2c4.6 0 6.2 3.7 6.2 17.3 0 14.2-1.9 17.4-6.2 17.4-4.4 0-6.3-3.3-6.3-17.4 0-13 1.5-17.3 6.3-17.3zm0-10.4c-15.8 0-21.6 11.1-21.6 27.7 0 17.1 6.2 27.8 21.5 27.8 15.6 0 21.8-10.8 21.8-27.8 0-16.6-5.9-27.7-21.7-27.7m-51.9 1.2v53.2h14.8v-23c0-4.1 0-16.4 10.9-16.4.6 0 1.2 0 2.5.2v-14.4c-.7-.2-1.5-.3-2.6-.3-8.6 0-11.2 9.1-12.5 13.6v-12.8H236zm-40-6.3h2.8c6.3 0 15 .7 15 22.9 0 23.5-8.8 24.3-15 24.3H196V367zm-15.7 59.5h18.9c5.5 0 13.2 0 19.6-5 7.7-5.9 11.7-18 11.7-31.5 0-35.4-22.3-35.5-33.2-35.5h-17v72zM90 407.7l-28.7 23.9-12.3-8v8.9l41 24.6 41-24.6v-8.9l-12.3 8L90 407.7zm69.4-53.1l-40.8-26.8-28.7 24 41.3 25.4 28.2-22.6zm-69.5 48l28.7 23.9 40.8-26.7-28.2-22.6c0-.1-41.3 25.4-41.3 25.4zm-69.4-2.8l40.9 26.7L90 402.6l-41.1-25.5c-.1 0-28.4 22.7-28.4 22.7zm40.8-72l-40.8 26.6 28.3 22.7 41.1-25.5-28.6-23.8z"/>
</svg>
